<?xml version="1.0" standalone="no"?>
<!DOCTYPE svg PUBLIC "-//W3C//DTD SVG 20010904//EN"
 "http://www.w3.org/TR/2001/REC-SVG-20010904/DTD/svg10.dtd">
<svg version="1.0" xmlns="http://www.w3.org/2000/svg"
 width="1024.000000pt" height="1024.000000pt" viewBox="0 0 1024.000000 1024.000000"
 preserveAspectRatio="xMidYMid meet">
<metadata>
Created by potrace 1.16, written by Peter Selinger 2001-2019
</metadata>
<g transform="translate(0.000000,1024.000000) scale(0.100000,-0.100000)"
fill="#000000" stroke="none">
<path d="M0 5120 l0 -5120 5120 0 5120 0 0 5120 0 5120 -5120 0 -5120 0 0
-5120z m6733 2182 l357 3 0 -40 0 -40 -51 4 c-28 1 -71 -3 -95 -9 -53 -15
-125 -76 -160 -136 -60 -103 -56 32 -60 -1999 -1 -1162 1 -1890 7 -1940 24
-193 139 -323 293 -328 l56 -2 0 -35 0 -35 -662 2 -663 3 -3 32 -3 33 68 1
c91 0 157 30 223 100 28 30 63 80 78 111 l27 58 3 495 c1 272 3 641 5 820 l2
325 -135 -7 c-74 -4 -448 -7 -831 -5 l-697 2 -1 -770 c-1 -833 0 -848 53 -952
56 -112 130 -162 254 -170 l77 -6 -1 -33 -1 -34 -657 -3 -656 -2 0 31 c0 30 1
31 54 37 117 12 212 81 263 191 l28 61 8 1785 c4 982 5 1858 2 1948 -4 128
-10 177 -27 228 -40 122 -146 207 -260 208 -53 1 -58 3 -59 24 -1 12 -2 27 -3
33 -1 8 181 12 656 13 649 1 657 1 662 -19 14 -50 11 -52 -79 -57 -67 -5 -94
-11 -129 -32 -47 -27 -107 -91 -133 -141 -47 -89 -47 -81 -50 -962 l-4 -831
833 -1 833 -1 -2 388 c-2 213 -4 596 -6 852 -2 459 -3 466 -25 520 -56 133
-131 192 -271 212 l-81 11 0 36 0 36 302 -8 c167 -4 464 -6 661 -5z m-3366
-177 c3 -99 2 -100 -94 -61 -32 13 -67 27 -77 30 -16 6 -11 11 28 36 69 44
123 70 130 63 3 -4 6 -1 6 5 0 7 1 12 3 12 1 0 3 -38 4 -85z m4082 -4 c18 -10
20 -15 11 -26 -14 -16 -98 -49 -150 -59 l-35 -6 -2 78 -2 79 78 -27 c42 -15
87 -33 100 -39z m-4347 -160 c126 -13 126 -15 -25 -154 -251 -232 -329 -318
-535 -590 -45 -59 -84 -102 -86 -95 -3 7 -7 42 -10 78 -8 86 -65 204 -141 287
-65 73 -181 136 -280 154 -94 18 -93 17 -60 44 43 35 147 95 240 136 246 111
620 169 897 140z m4898 -15 c111 -20 263 -65 374 -110 88 -35 164 -80 263
-154 l51 -38 -80 -12 c-136 -20 -240 -83 -318 -194 -49 -69 -75 -134 -90 -231
-7 -42 -16 -77 -20 -77 -4 0 -34 42 -67 93 -33 50 -93 133 -135 182 -96 116
-338 356 -450 448 -49 40 -88 77 -88 84 0 33 388 40 560 9z m-585 -182 c151
-99 265 -207 430 -409 106 -130 146 -190 139 -208 -3 -8 -1 -18 5 -22 7 -4 9
1 5 12 -9 30 21 -12 78 -107 28 -47 57 -92 65 -101 12 -15 5 -17 -80 -21 -84
-5 -101 -9 -165 -43 -117 -61 -235 -206 -260 -321 l-9 -39 -13 30 c-7 17 -21
116 -32 220 -30 300 -85 552 -188 863 -33 101 -60 185 -60 188 0 10 20 1 85
-42z m-4100 16 c4 -12 -16 -96 -50 -208 -79 -260 -92 -306 -131 -477 -36 -153
-78 -396 -90 -518 -3 -37 -10 -69 -14 -72 -4 -3 -15 19 -25 47 -47 145 -134
253 -255 318 -58 30 -75 35 -157 38 l-92 4 15 37 c21 51 108 196 157 261 125
167 383 427 540 545 65 49 92 56 102 25z m3969 -253 c62 -159 196 -898 196
-1081 l0 -36 -36 15 c-192 80 -410 -3 -498 -188 -18 -40 -38 -82 -42 -95 -5
-13 -8 228 -6 575 l2 598 55 38 c85 59 181 153 228 224 41 62 42 63 57 42 9
-11 29 -53 44 -92z m-3845 61 c19 -46 197 -218 252 -245 l46 -23 7 -562 c3
-310 8 -579 12 -598 4 -27 -5 -17 -39 50 -75 144 -173 220 -303 235 -72 8
-176 -9 -221 -35 l-33 -19 0 37 c0 152 102 699 180 972 33 114 72 220 80 220
3 0 11 -15 19 -32z"/>
<path d="M6189 3545 l-4 -480 -27 -57 c-35 -76 -113 -152 -191 -188 l-62 -29
90 -2 c229 -5 863 -6 888 -2 l29 5 -50 33 c-99 67 -150 152 -171 286 -6 36 -9
180 -6 338 3 194 1 259 -5 217 -9 -58 -20 -86 -20 -52 0 10 -11 19 -30 23 -21
4 -30 11 -30 24 0 15 -8 19 -40 19 -22 0 -40 -4 -40 -10 0 -5 -15 -10 -34 -10
-18 0 -47 -7 -62 -15 -16 -8 -46 -15 -66 -15 -34 0 -38 3 -38 25 0 14 -4 25
-10 25 -5 0 -10 -9 -10 -20 0 -11 -4 -20 -10 -20 -5 0 -10 9 -10 19 0 11 -4
23 -10 26 -5 3 -10 1 -10 -5 0 -11 -24 -40 -33 -40 -12 0 -20 74 -27 225 -5
123 -7 49 -11 -320z"/>
<path d="M3958 3373 c5 -171 -11 -311 -45 -385 -29 -65 -98 -135 -163 -165
-22 -10 -40 -20 -40 -23 0 -3 222 -6 493 -8 487 -2 492 -2 452 16 -55 26 -119
93 -149 157 -34 70 -56 203 -56 330 l0 103 -53 26 c-60 29 -112 34 -121 11 -3
-9 -18 -15 -35 -15 -16 0 -31 -6 -34 -14 -3 -7 -23 -17 -44 -21 -21 -4 -42
-10 -48 -15 -5 -4 -34 -10 -64 -12 -46 -5 -54 -3 -58 13 -3 11 -9 19 -14 19
-5 0 -9 19 -9 43 0 23 -4 47 -8 54 -4 6 -6 -45 -4 -114z"/>
<path d="M3685 6291 c-3 -16 -15 -37 -26 -47 -10 -9 -19 -21 -19 -26 0 -27
-222 -278 -246 -278 -6 0 -16 -11 -22 -25 -6 -14 -16 -25 -22 -25 -5 0 -10
-11 -10 -24 0 -27 -16 -43 -23 -24 -2 7 -4 1 -3 -14 1 -19 8 -29 24 -33 12 -3
22 -12 22 -20 0 -8 9 -15 19 -15 11 0 22 -4 25 -8 5 -8 91 -7 206 2 30 2 67 5
82 5 l27 1 3 280 c3 256 2 280 -14 280 -10 0 -19 -11 -23 -29z"/>
</g>
</svg>
